<svg width="24" height="24" viewBox="0 0 24 24" fill="none" xmlns="http://www.w3.org/2000/svg">
    <path d="M11.8991 12.4688L15.2935 15.8624L14.1615 16.9944L12.6991 15.532V20H11.0991V15.5304L9.63673 16.9944L8.50473 15.8624L11.8991 12.4688ZM11.8991 4C13.2727 4.00007 14.5984 4.50489 15.6241 5.41849C16.6498 6.3321 17.304 7.59077 17.4623 8.9552C18.4577 9.22665 19.3261 9.83928 19.9157 10.686C20.5052 11.5328 20.7785 12.5598 20.6876 13.5875C20.5968 14.6153 20.1477 15.5784 19.4188 16.3087C18.6899 17.0389 17.7275 17.4897 16.6999 17.5824V15.9712C17.0681 15.9186 17.422 15.7932 17.7412 15.6024C18.0604 15.4115 18.3383 15.159 18.5588 14.8595C18.7793 14.5601 18.9379 14.2197 19.0254 13.8583C19.1129 13.4968 19.1276 13.1216 19.0685 12.7545C19.0094 12.3873 18.8778 12.0356 18.6813 11.7199C18.4848 11.4042 18.2274 11.1307 17.9241 10.9156C17.6208 10.7004 17.2777 10.5478 16.9147 10.4667C16.5518 10.3856 16.1764 10.3776 15.8103 10.4432C15.9356 9.85991 15.9288 9.25598 15.7905 8.67564C15.6522 8.09531 15.3858 7.55327 15.0108 7.08922C14.6359 6.62518 14.1619 6.25089 13.6235 5.99376C13.0852 5.73663 12.4961 5.60317 11.8995 5.60317C11.3029 5.60317 10.7139 5.73663 10.1756 5.99376C9.63721 6.25089 9.16321 6.62518 8.78826 7.08922C8.4133 7.55327 8.1469 8.09531 8.00856 8.67564C7.87022 9.25598 7.86345 9.85991 7.98873 10.4432C7.25886 10.3061 6.50443 10.4646 5.89141 10.8838C5.27839 11.303 4.857 11.9485 4.71993 12.6784C4.58287 13.4083 4.74136 14.1627 5.16054 14.7757C5.57972 15.3887 6.22526 15.8101 6.95513 15.9472L7.09913 15.9712V17.5824C6.07149 17.4899 5.10906 17.0391 4.38004 16.309C3.65102 15.5788 3.2018 14.6156 3.11087 13.5879C3.01995 12.5601 3.29312 11.533 3.88263 10.6862C4.47214 9.83941 5.3405 9.22671 6.33593 8.9552C6.4941 7.5907 7.14826 6.33193 8.174 5.41829C9.19974 4.50466 10.5255 3.99989 11.8991 4V4Z" fill="#555555"/>
</svg>
