<svg width="16" height="15" viewBox="0 0 16 15" fill="none" xmlns="http://www.w3.org/2000/svg">
<path d="M4.6381 6.43812L0.77304 2.67828L0.729516 2.62721C0.219912 1.99775 0.317072 1.07436 0.94653 0.564757C1.51518 0.104379 2.2821 -0.0244014 2.99846 0.233786L3.15177 0.298076L8.7297 2.92244L11.4663 0.571064C12.4577 -0.280919 13.9521 -0.167922 14.8105 0.831109L14.8486 0.876814C15.6711 1.89286 15.5143 3.38335 14.4825 4.21829L11.6079 6.40945L13.0374 12.5087C13.2204 13.2893 12.9408 14.1057 12.3176 14.6102C11.6882 15.1198 10.7648 15.0227 10.2426 14.3772L10.1795 14.2899L7.292 9.69936L5.74603 10.878L5.97745 11.5533C6.21878 12.2577 5.99438 13.0378 5.41567 13.5064C4.7952 14.0087 3.88499 13.9129 3.38246 13.2922L2.94712 12.7539L2.81878 12.82C2.08181 13.1988 1.1802 13.0087 0.658807 12.3647C0.137344 11.7206 0.139499 10.799 0.663856 10.1574L0.754848 10.0461L0.318349 9.50743C-0.141596 8.93931 -0.10376 8.11971 0.429608 7.56686L0.532264 7.47442C1.05995 7.04722 1.78398 6.9596 2.42846 7.26088L2.55906 7.33121L3.17208 7.69786L4.6381 6.43812ZM1.80675 1.62729C1.76411 1.66181 1.75753 1.72436 1.77898 1.75134L6.66323 6.50043L3.31584 9.37682L1.88774 8.52161L1.81934 8.48426C1.67933 8.41903 1.51333 8.43912 1.42459 8.50927L1.38458 8.54419C1.3581 8.57173 1.35603 8.61652 1.38067 8.64696L2.5173 10.0495L1.72246 11.0225C1.60794 11.1626 1.60747 11.3639 1.72134 11.5045C1.83539 11.6454 2.03263 11.687 2.19351 11.6043L3.31055 11.0294L4.44519 12.4322C4.47244 12.4659 4.5218 12.4711 4.55545 12.4438C4.68803 12.3365 4.73944 12.1578 4.68416 11.9964L4.13317 10.3885L7.65274 7.70528L11.302 13.5119L11.3177 13.533C11.3522 13.5756 11.4148 13.5822 11.4574 13.5477C11.673 13.3732 11.7697 13.0907 11.7064 12.8207L10.0748 5.8591L13.638 3.1434C14.0673 2.79591 14.1336 2.16621 13.7924 1.74478L13.7672 1.71449C13.4073 1.29574 12.7761 1.24801 12.3573 1.60793L8.94897 4.53646L2.59934 1.54816L2.50591 1.50865C2.26884 1.42348 2.00344 1.46805 1.80675 1.62729Z"/>
</svg>
