<svg width="139" height="117" viewBox="0 0 139 117" fill="none" xmlns="http://www.w3.org/2000/svg">
<path d="M67.7585 100C95.2117 100 117.483 77.6185 117.483 49.9449C117.483 22.2712 95.2117 0 67.7585 0C40.3054 0 18.0342 22.3815 18.0342 50.0551C18.0342 77.7288 40.3054 100 67.7585 100Z" fill="#EAEEF9"/>
<path d="M92.2342 99.3384C84.6267 99.5589 75.5859 99.3384 69.081 99.2282C62.6863 99.4487 53.5352 99.5589 45.9277 99.3384C53.425 95.0385 56.0711 87.1003 56.4018 81.8081H81.5396C82.2012 86.99 84.8472 95.0385 92.2342 99.3384Z" fill="url(#paint0_linear_3521_96736)"/>
<g filter="url(#filter0_d_3521_96736)">
<path d="M116.601 15.1046V80.926C116.601 82.5798 115.278 83.7926 113.844 83.7926H24.8696C23.3261 83.7926 22.1133 82.4696 22.1133 80.926V15.1046C22.1133 13.5611 23.4363 12.238 24.8696 12.238H113.734C115.388 12.238 116.601 13.5611 116.601 15.1046Z" fill="white"/>
</g>
<path d="M116.601 15.1046V71.775H22.1133V15.1046C22.1133 13.5611 23.4363 12.238 24.8696 12.238H113.734C115.388 12.238 116.601 13.5611 116.601 15.1046Z" fill="#989FB0"/>
<path d="M112.962 15.8767H25.3105V68.5779H113.072V15.8767H112.962Z" fill="white"/>
<path d="M69.1913 79.866C70.5143 79.866 71.5066 78.8737 71.5066 77.5507C71.5066 76.2276 70.5143 75.2354 69.1913 75.2354C67.8683 75.2354 66.876 76.2276 66.876 77.5507C66.876 78.8737 67.8683 79.866 69.1913 79.866Z" fill="#D0D8E6"/>
<path d="M107.891 25.5788V32.3043C107.891 33.2966 107.119 34.0683 106.127 34.0683H32.0365C31.0442 34.0683 30.2725 33.2966 30.2725 32.3043V25.5788C30.2725 24.5865 31.0442 23.8148 32.0365 23.8148H106.017C107.119 23.7045 107.891 24.5865 107.891 25.5788Z" fill="#E5E9F1"/>
<path d="M40.6362 23.7046V34.1787H31.9262C30.9339 34.1787 30.1621 33.4069 30.1621 32.4146V25.6892C30.1621 24.6969 30.9339 23.9251 31.9262 23.9251L40.6362 23.7046Z" fill="#E3EAF2"/>
<path opacity="0.8" d="M107.891 39.6911V46.4166C107.891 47.4089 107.119 48.1807 106.127 48.1807H32.0365C31.0442 48.1807 30.2725 47.4089 30.2725 46.4166V39.6911C30.2725 38.6988 31.0442 37.9271 32.0365 37.9271H106.017C107.119 37.8168 107.891 38.6988 107.891 39.6911Z" fill="#E5E9F1"/>
<path d="M40.6362 23.7046V34.1787H31.9262C30.9339 34.1787 30.1621 33.4069 30.1621 32.4146V25.6892C30.1621 24.6969 30.9339 23.9251 31.9262 23.9251L40.6362 23.7046Z" fill="#989FB0"/>
<path d="M35.1231 31.2017C34.9026 31.2017 34.6821 31.0914 34.5718 30.9812L32.918 29.3274C32.5872 28.9966 32.5872 28.5556 32.918 28.2248C33.2488 27.8941 33.6898 27.8941 34.0205 28.2248L35.0128 29.2171L37.4384 26.7915C37.7692 26.4608 38.2102 26.4608 38.5409 26.7915C38.8717 27.1223 38.8717 27.5633 38.5409 27.8941L35.5641 30.8709C35.4538 31.0914 35.2333 31.2017 35.1231 31.2017Z" fill="white"/>
<path opacity="0.5" d="M107.891 53.8038V60.5293C107.891 61.5216 107.119 62.2934 106.127 62.2934H32.0365C31.0442 62.2934 30.2725 61.5216 30.2725 60.5293V53.8038C30.2725 52.8115 31.0442 52.0398 32.0365 52.0398H106.017C107.119 51.9295 107.891 52.7013 107.891 53.8038Z" fill="#E5E9F1"/>
<path opacity="0.3" d="M107.891 67.8061V68.5778H30.1621V67.8061C30.1621 66.8138 30.9339 66.042 31.9262 66.042H106.017C107.119 66.042 107.891 66.8138 107.891 67.8061Z" fill="#E5E9F1"/>
<path opacity="0.3" d="M25.862 95.5898V97.3539H25.7517H6.89834H6.78809V95.5898C6.78809 95.0385 7.2291 94.7078 7.67011 94.7078H24.9799C25.5312 94.7078 25.862 95.1488 25.862 95.5898Z" fill="#E5E9F1"/>
<path d="M28.9483 19.956C29.4996 19.956 29.9406 19.515 29.9406 18.9637C29.9406 18.4125 29.4996 17.9714 28.9483 17.9714C28.3971 17.9714 27.9561 18.4125 27.9561 18.9637C27.9561 19.515 28.3971 19.956 28.9483 19.956Z" fill="#E3EAF2"/>
<path d="M32.1466 19.956C32.6978 19.956 33.1389 19.515 33.1389 18.9637C33.1389 18.4125 32.6978 17.9714 32.1466 17.9714C31.5953 17.9714 31.1543 18.4125 31.1543 18.9637C31.1543 19.515 31.5953 19.956 32.1466 19.956Z" fill="#E3EAF2"/>
<path d="M35.3438 19.956C35.8951 19.956 36.3361 19.515 36.3361 18.9637C36.3361 18.4125 35.8951 17.9714 35.3438 17.9714C34.7926 17.9714 34.3516 18.4125 34.3516 18.9637C34.3516 19.515 34.7926 19.956 35.3438 19.956Z" fill="#E3EAF2"/>
<path d="M3.82324 99.4587L131.177 99.4587" stroke="#989FB0" stroke-width="2" stroke-miterlimit="10" stroke-linecap="round" stroke-linejoin="round"/>
<path d="M12.0765 43.2295C13.9019 43.2295 15.3816 41.7498 15.3816 39.9244C15.3816 38.0991 13.9019 36.6194 12.0765 36.6194C10.2512 36.6194 8.77148 38.0991 8.77148 39.9244C8.77148 41.7498 10.2512 43.2295 12.0765 43.2295Z" fill="#EAEEF9"/>
<path d="M8.77177 32.5084C10.0183 32.5084 11.0289 31.4978 11.0289 30.2513C11.0289 29.0047 10.0183 27.9941 8.77177 27.9941C7.5252 27.9941 6.51465 29.0047 6.51465 30.2513C6.51465 31.4978 7.5252 32.5084 8.77177 32.5084Z" fill="#EAEEF9"/>
<path d="M103.107 6.05769C104.353 6.05769 105.364 5.04714 105.364 3.80057C105.364 2.554 104.353 1.54346 103.107 1.54346C101.86 1.54346 100.85 2.554 100.85 3.80057C100.85 5.04714 101.86 6.05769 103.107 6.05769Z" fill="#EAEEF9"/>
<path d="M126.985 51.5435C129.3 51.5435 131.177 49.6668 131.177 47.3517C131.177 45.0366 129.3 43.1599 126.985 43.1599C124.67 43.1599 122.793 45.0366 122.793 47.3517C122.793 49.6668 124.67 51.5435 126.985 51.5435Z" fill="#EAEEF9"/>
<defs>
<filter id="filter0_d_3521_96736" x="0.113281" y="1.23804" width="138.487" height="115.555" filterUnits="userSpaceOnUse" color-interpolation-filters="sRGB">
<feFlood flood-opacity="0" result="BackgroundImageFix"/>
<feColorMatrix in="SourceAlpha" type="matrix" values="0 0 0 0 0 0 0 0 0 0 0 0 0 0 0 0 0 0 127 0" result="hardAlpha"/>
<feOffset dy="11"/>
<feGaussianBlur stdDeviation="11"/>
<feColorMatrix type="matrix" values="0 0 0 0 0.397708 0 0 0 0 0.47749 0 0 0 0 0.575 0 0 0 0.27 0"/>
<feBlend mode="normal" in2="BackgroundImageFix" result="effect1_dropShadow_3521_96736"/>
<feBlend mode="normal" in="SourceGraphic" in2="effect1_dropShadow_3521_96736" result="shape"/>
</filter>
<linearGradient id="paint0_linear_3521_96736" x1="69.09" y1="98.8491" x2="69.09" y2="83.1493" gradientUnits="userSpaceOnUse">
<stop stop-color="#E8ECF5"/>
<stop offset="0.9913" stop-color="#BDC4D7"/>
</linearGradient>
</defs>
</svg>
