<svg width="32" height="32" viewBox="0 0 32 32" fill="none" xmlns="http://www.w3.org/2000/svg">
<path d="M24.1998 31.4H7.79976C5.48016 31.4 3.59976 29.5196 3.59976 27.2V4.8C3.59976 2.4804 5.48016 0.6 7.79976 0.6H16.4708C17.5734 0.6 18.6318 1.03361 19.4175 1.80722L27.1465 9.41728C27.9483 10.2067 28.3998 11.2849 28.3998 12.4101V27.2C28.3998 29.5196 26.5194 31.4 24.1998 31.4Z" fill="#FEFEFE" stroke="#CCCCCC" stroke-width="1.2"/>
<path d="M18 1V7.8C18 9.56731 19.4327 11 21.2 11H28" stroke="#CCCCCC" stroke-width="1.2"/>
<path d="M0 15C0 13.3431 1.34315 12 3 12H19C20.6569 12 22 13.3431 22 15V19C22 20.6569 20.6569 22 19 22H3C1.34315 22 0 20.6569 0 19V15Z" fill="#453DC7"/>
<path d="M4.616 20H3.76V14.288H6.976V15.024H4.616V16.888H6.824V17.624H4.616V20ZM9.74656 20H7.53056V19.504L8.21056 19.304V14.992L7.53056 14.784V14.288H9.74656V14.784L9.07456 14.992V19.304L9.74656 19.504V20ZM10.8147 20V14.288H11.6787V19.256H14.1187V20H10.8147ZM18.3198 20H15.1038V14.288H18.3198V15.024H15.9678V16.656H18.1758V17.384H15.9678V19.256H18.3198V20Z" fill="#FEFEFE"/>
</svg>
